<?xml version="1.0" encoding="UTF-8"?>
<svg width="40px" height="40px" viewBox="0 0 40 40" version="1.1" xmlns="http://www.w3.org/2000/svg" xmlns:xlink="http://www.w3.org/1999/xlink">
    <!-- Generator: Sketch 58 (84663) - https://sketch.com -->
    <title>View line</title>
    <desc>Created with Sketch.</desc>
    <g id="View-line" stroke="none" stroke-width="1" fill="none" fill-rule="evenodd">
        <g id="View-3" transform="translate(0.000000, 6.000000)" fill="#000000">
            <path d="M39.3511111,13.1822222 C39.0311111,12.6577778 31.3511111,0.355555556 20.1955556,0.355555556 C9.04,0.355555556 1.36,12.6577778 1.04,13.1822222 C0.510585694,14.0404807 0.510585694,15.1239638 1.04,15.9822222 C1.36,16.5066667 9.04,28.7644444 20.1866667,28.8 L20.24,28.8 C31.36,28.8 39.04,16.4977778 39.36,15.9733333 C39.8830436,15.1155692 39.8796076,14.0366375 39.3511111,13.1822222 L39.3511111,13.1822222 Z M20.24,26.1333333 L20.24,26.1333333 C10.4622222,26.1333333 3.35111111,14.5777778 3.35111111,14.5777778 C3.35111111,14.5777778 10.4622222,3.02222222 20.24,3.02222222 C30.0177778,3.02222222 37.1288889,14.5777778 37.1288889,14.5777778 C37.1288889,14.5777778 29.9911111,26.1333333 20.24,26.1333333 Z" id="Shape"></path>
            <path d="M20.1955556,7.46666667 C16.2681973,7.46666667 13.0844444,10.6504196 13.0844444,14.5777778 C13.0844444,18.505136 16.2681973,21.6888889 20.1955556,21.6888889 C24.1229138,21.6888889 27.3066667,18.505136 27.3066667,14.5777778 C27.3066667,10.6504196 24.1229138,7.46666667 20.1955556,7.46666667 Z M20.1955556,19.0222222 C17.7409567,19.0222222 15.7511111,17.0323767 15.7511111,14.5777778 C15.7511111,12.1231789 17.7409567,10.1333333 20.1955556,10.1333333 C22.6501544,10.1333333 24.64,12.1231789 24.64,14.5777778 C24.64,17.0323767 22.6501544,19.0222222 20.1955556,19.0222222 L20.1955556,19.0222222 Z" id="Shape"></path>
        </g>
    </g>
</svg>